<svg width="267" height="92" viewBox="0 0 267 92" fill="none" xmlns="http://www.w3.org/2000/svg">
<g clip-path="url(#clip0_2960_86317)">
<mask id="mask0_2960_86317" style="mask-type:luminance" maskUnits="userSpaceOnUse" x="-36" y="-63" width="325" height="217">
<path d="M-35.803 -62.9798H288.785V153.412H-35.803V-62.9798Z" fill="white"/>
</mask>
<g mask="url(#mask0_2960_86317)">
<path d="M86.7207 45.9116C86.7207 63.4147 72.5317 77.6035 55.0286 77.6035C37.5257 77.6035 23.3367 63.4147 23.3367 45.9116C23.3367 28.4085 37.5257 14.2195 55.0286 14.2195C72.5317 14.2195 86.7207 28.4085 86.7207 45.9116Z" fill="#FD7E14"/>
<path d="M71.3243 29.9667C67.0683 25.2861 60.9346 22.3412 54.1259 22.3412C50.0477 22.3412 46.2117 23.3981 42.8767 25.2498C43.1515 25.8639 43.4261 26.4518 43.7007 27.0207C46.7839 25.2788 50.3418 24.2866 54.1259 24.2866C61.1811 24.2866 67.4454 27.7383 71.3243 33.0386V29.9667Z" fill="white"/>
<path d="M35.2404 59.1365L35.3598 55.669C33.7408 52.667 32.8231 49.2348 32.8231 45.5927C32.8231 41.4272 34.0253 37.5364 36.1031 34.2499L36.2228 30.7757C32.8878 34.8023 30.8777 39.9665 30.8777 45.5927C30.8777 50.6437 32.4967 55.32 35.2404 59.1365Z" fill="white"/>
<path d="M71.5845 29.8639L57.4632 51.5314L42.3703 29.8639H35.3369L39.4159 32.9219V42.4808L42.7304 45.9531V38.7864L56.3929 58.4121L75.1013 32.8726L79.131 29.8639H71.5845ZM42.7304 49.5242L39.4159 46.0517V50.9152L42.7304 54.3874V49.5242ZM42.7304 62.4913V57.9585L39.4159 54.4861V62.4913L35.3369 65.5493H48.8465L42.7304 62.4913ZM70.0012 49.899V53.4995L75.1013 48.1629V44.5621L70.0012 49.899ZM75.1013 62.4913V51.7387L70.0012 57.0754V62.4913L65.9272 65.5493H79.1803L75.1013 62.4913ZM70.0012 42.5992V46.3231L75.1013 40.9862V36.4684L70.0012 42.5992Z" fill="white"/>
</g>
</g>
<path d="M108.086 54.1274H102.677L104.341 52.8791V42.7898L98.7869 51.2148L93.2113 43.2059V52.8791L95.7081 54.1274H90.1948L91.8591 52.8791V40.8131L90.1948 39.5653H93.0657L99.2238 48.4067L104.986 39.5653H108.065L106.422 40.7927V52.8791L108.086 54.1274Z" fill="#FD7E14"/>
<path d="M120.776 50.404V54.1274H109.542L111.206 52.8791V40.8131L109.542 39.5653H120.152V43.289L118.134 40.6051H113.287V46.1179H117.011L118.425 44.2457V49.0305L117.011 47.1583H113.287V53.087H118.758L120.776 50.404Z" fill="#FD7E14"/>
<path d="M136.378 40.8132V54.7517H136.254L125.456 42.79V52.8793L127.953 54.1276H122.44L124.104 52.8793V40.8132L122.44 39.5653H125.311L135.026 50.3832V40.8132L132.53 39.5653H138.042L136.378 40.8132Z" fill="#FD7E14"/>
<path d="M150.525 50.404V54.1274H139.291L140.955 52.8791V40.8131L139.291 39.5653H149.9V43.289L147.883 40.6051H143.036V46.1179H146.759L148.174 44.2457V49.0305L146.759 47.1583H143.036V53.087H148.507L150.525 50.404Z" fill="#FD7E14"/>
<path d="M166.335 52.8791L167.999 54.1274H162.59L164.255 52.8791V46.9504H155.934V52.8791L157.597 54.1274H152.188L153.853 52.8791V40.8131L152.188 39.5651H157.597L155.934 40.8131V45.91H164.255V40.8131L162.59 39.5651H167.999L166.335 40.8131V52.8791Z" fill="#FD7E14"/>
<path d="M177.443 47.5744L175.509 42.8729L173.553 47.5744H177.443ZM183.643 54.1274H177.963L179.628 52.8793L177.88 48.6149H173.116L171.327 52.8793L173.803 54.1274H169.455L175.946 38.941H176.071L182.082 52.9628L183.643 54.1274Z" fill="#FD7E14"/>
<path d="M191.902 47.0124C192.415 47.8031 192.911 48.5627 193.389 49.2904C193.868 50.019 194.36 50.6878 194.867 51.2985C195.373 51.9089 195.896 52.453 196.437 52.9312C196.978 53.4096 197.568 53.8084 198.205 54.1274V54.2315C197.11 54.3425 196.194 54.2592 195.459 53.9818C194.724 53.7046 194.038 53.2398 193.4 52.5882C192.762 51.9362 192.111 51.0975 191.445 50.0709C190.779 49.0446 189.975 47.831 189.031 46.4303C189.891 46.3886 190.595 46.2711 191.143 46.0765C191.691 45.8826 192.128 45.6435 192.454 45.359C192.779 45.0749 193.005 44.7591 193.13 44.4123C193.254 44.066 193.317 43.7049 193.317 43.3305C193.317 42.4569 193.029 41.7842 192.454 41.3127C191.878 40.8414 191.07 40.6051 190.03 40.6051H187.908V52.879L189.572 54.1274H184.163L185.828 52.879V40.813L184.163 39.5651H190.238C191.014 39.5651 191.728 39.6348 192.381 39.773C193.033 39.912 193.598 40.1238 194.076 40.4079C194.555 40.692 194.929 41.0565 195.2 41.4996C195.47 41.9439 195.605 42.4708 195.605 43.081C195.605 44.0794 195.265 44.9152 194.586 45.5879C193.906 46.2605 193.012 46.7354 191.902 47.0124Z" fill="#FD7E14"/>
<path d="M202.262 52.8791L203.926 54.1274H198.517L200.181 52.8791V40.8131L198.517 39.5651H203.926L202.262 40.8131V52.8791Z" fill="#FD7E14"/>
<path d="M213.37 47.7198V52.879L215.035 54.1272H209.647L211.29 52.8998V47.7198L206.422 40.6676L204.966 39.5651H210.687L209.022 40.813L212.809 46.4507L216.72 40.813V40.7925L214.244 39.5651H219.841L218.176 40.813L213.37 47.7198Z" fill="#FD7E14"/>
<path d="M226.06 47.5744L224.126 42.8729L222.17 47.5744H226.06ZM232.26 54.1274H226.58L228.245 52.8793L226.497 48.6149H221.733L219.944 52.8793L222.42 54.1274H218.072L224.563 38.941H224.688L230.699 52.9628L232.26 54.1274Z" fill="#FD7E14"/>
<defs>
<clipPath id="clip0_2960_86317">
<rect width="68.975" height="67.6766" fill="white" transform="translate(21 12)"/>
</clipPath>
</defs>
</svg>
